<?xml version="1.0"?>
<svg xmlns="http://www.w3.org/2000/svg" xmlns:xlink="http://www.w3.org/1999/xlink" xmlns:svgjs="http://svgjs.dev/svgjs" version="1.1" width="1500" height="1500" viewBox="0 0 1500 1500" style="background-color:transparent;">
  <rect width="1500" height="1500" fill="none"/>
  <g transform="matrix(0.6666666666666666,0,0,0.6666666666666666,249.39393939393938,671.3932633171108)">
    <svg xmlns="http://www.w3.org/2000/svg" xmlns:xlink="http://www.w3.org/1999/xlink" viewBox="0 0 396 62" data-background-color="#111111" preserveAspectRatio="xMidYMid meet" height="234" width="1500">
      <g id="tight-bounds" transform="matrix(1,0,0,1,0.2400000000000091,0.24113893807131603)">
        <svg viewBox="0 0 395.52 61.517722123857354" height="61.517722123857354" width="395.52">
          <g>
            <svg viewBox="0 0 489.07924872388696 76.06958262424402" height="61.517722123857354" width="395.52">
              <g transform="matrix(1,0,0,1,93.55924872388694,19.184410034183543)">
                <svg viewBox="0 0 395.52000000000004 37.700762555876935" height="37.700762555876935" width="395.52000000000004">
                  <g id="textblocktransform">
                    <svg viewBox="0 0 395.52000000000004 37.700762555876935" height="37.700762555876935" width="395.52000000000004" id="textblock">
                      <g>
                        <svg viewBox="0 0 395.52000000000004 37.700762555876935" height="37.700762555876935" width="395.52000000000004">
                          <g transform="matrix(1,0,0,1,0,0)">
                            <svg width="395.52000000000004" viewBox="1.5 -36 380.27 36.25" height="37.700762555876935" data-palette-color="url(#b141a508-c9ab-4493-ac40-126238d9aa9e)"/>
                          </g>
                        </svg>
                      </g>
                    </svg>
                  </g>
                </svg>
              </g>
              <g>
                <svg viewBox="0 0 84.65900350274573 76.06958262424402" height="76.06958262424402" width="84.65900350274573">
                  <g>
                    <svg xmlns="http://www.w3.org/2000/svg" xmlns:xlink="http://www.w3.org/1999/xlink" version="1.1" x="0" y="0" viewBox="1.6165235823033985 5.312084950420108 96.60707536238598 86.80541463173783" enable-background="new 0 0 100 100" xml:space="preserve" height="76.06958262424402" width="84.65900350274573" class="icon-icon-0" data-fill-palette-color="accent" id="icon-0">
                      <g fill="#ffffff" data-fill-palette-color="accent">
                        <g fill="#ffffff" data-fill-palette-color="accent">
                          <path fill-rule="evenodd" clip-rule="evenodd" d="M37.094 26.532C45.776 26.414 48.953 20.791 50.294 13.332 50.028 12.223 48.58 12.296 49.057 10.445 49.739 9.843 50.208 9.569 51.326 9.826 52.364 11.028 51.624 12.971 51.326 14.363 49.692 21.986 45.533 28.867 35.238 27.357 36.686 30.028 38.04 32.336 38.126 36.019 38.275 42.45 34.898 48.116 30.907 52.106 26.947 56.066 21.513 59.487 14.82 59.325 7.382 59.145 1.779 54.059 1.62 46.125 1.504 40.382 4.31 35.018 7.188 31.688 11.616 26.564 21.694 19.891 30.907 24.263 31.804 24.689 33.134 26.034 34.207 26.119 36.265 26.283 39.633 23.761 41.013 21.994 43.591 18.693 43.756 13.384 42.457 8.794 41.956 8.03 40.593 8.418 40.394 7.144 40.262 6.298 41.291 4.79 42.663 5.494 43.558 5.953 44.532 12.086 44.519 14.363 44.484 20.581 40.839 24.587 37.094 26.532M18.944 32.307C17.794 37.303 24.959 36.982 24.719 32.926 24.61 31.079 23.541 29.974 21.213 30.451 19.771 30.746 19.083 31.698 18.944 32.307" fill="#000000" data-fill-palette-color="accent"/>
                          <path fill-rule="evenodd" clip-rule="evenodd" d="M95.05 27.769C80.89 18.462 56.286 22.693 49.056 34.988 49.555 32.585 50.928 30.209 52.355 27.976 56.672 21.225 63.869 13.861 74.011 13.126 84.864 12.339 91.754 19.855 95.05 27.769" fill="#000000" data-fill-palette-color="accent"/>
                          <path fill-rule="evenodd" clip-rule="evenodd" d="M87.418 71.494C87.304 61.105 82.136 54.042 76.074 47.981 69.561 41.468 59.323 35.844 48.231 38.906 47.361 38.941 48.234 38.589 48.231 38.287 55.234 32.573 63.563 26.385 75.456 26.325 87.659 26.262 97.248 33.676 98.144 45.3 98.962 55.93 93.342 66.142 87.418 71.494" fill="#000000" data-fill-palette-color="accent"/>
                          <path fill-rule="evenodd" clip-rule="evenodd" d="M52.975 42.619C53.746 42.744 52.661 43.44 52.356 43.856 47.076 51.091 40.937 58.762 33.588 64.069 32.811 62.301 32.75 59.819 32.763 57.262 36.9 53.699 40.365 49.464 42.044 43.444 44.964 42.516 49.413 41.621 52.975 42.619" fill="#000000" data-fill-palette-color="accent"/>
                          <path fill-rule="evenodd" clip-rule="evenodd" d="M60.193 44.682C62.973 45.821 65.35 47.362 67.618 49.013 59.902 59.996 51.191 69.986 39.981 77.476 38.71 75.928 37.474 74.345 36.681 72.32 46.61 65.198 55.675 57.213 60.193 44.682" fill="#000000" data-fill-palette-color="accent"/>
                          <path fill-rule="evenodd" clip-rule="evenodd" d="M72.568 53.551C74.932 55.517 76.502 58.28 78.343 60.769 70.813 71.183 62.905 81.218 51.737 87.995 49.499 86.589 47.477 84.968 45.343 83.457 57.194 76.264 67.255 67.281 72.568 53.551" fill="#000000" data-fill-palette-color="accent"/>
                          <path fill-rule="evenodd" clip-rule="evenodd" d="M81.644 69.638C82.794 71.634 82.875 75.62 82.469 78.507 81.408 79.643 80.126 80.404 78.962 81.394 75.74 84.134 72.618 87.373 70.712 91.707 67.991 92.281 64.375 92.227 61.637 91.707 69.601 85.645 76.797 78.816 81.644 69.638" fill="#000000" data-fill-palette-color="accent"/>
                          <path fill-rule="evenodd" clip-rule="evenodd" d="M83.293 83.25C83.093 84.723 81.933 88.813 83.293 90.675 80.826 90.479 77.475 90.601 75.456 91.912 77.57 88.527 80.372 85.829 83.293 83.25" fill="#000000" data-fill-palette-color="accent"/>
                        </g>
                      </g>
                    </svg>
                  </g>
                </svg>
              </g>
            </svg>
          </g>
          <defs/>
          <mask id="39a9ed38-d511-4aee-862b-a7d55359b110">
            <g id="SvgjsG2286">
              <svg viewBox="0 0 395.52 61.517722123857354" height="61.517722123857354" width="395.52">
                <g>
                  <svg viewBox="0 0 489.07924872388696 76.06958262424402" height="61.517722123857354" width="395.52">
                    <g transform="matrix(1,0,0,1,93.55924872388694,19.184410034183543)">
                      <svg viewBox="0 0 395.52000000000004 37.700762555876935" height="37.700762555876935" width="395.52000000000004">
                        <g id="SvgjsG2285">
                          <svg viewBox="0 0 395.52000000000004 37.700762555876935" height="37.700762555876935" width="395.52000000000004" id="SvgjsSvg2284">
                            <g>
                              <svg viewBox="0 0 395.52000000000004 37.700762555876935" height="37.700762555876935" width="395.52000000000004">
                                <g transform="matrix(1,0,0,1,0,0)">
                                  <svg width="395.52000000000004" viewBox="1.5 -36 380.27 36.25" height="37.700762555876935" data-palette-color="url(#b141a508-c9ab-4493-ac40-126238d9aa9e)">
                                    <path d="M31.95 0.25L2.35 0.25 2.35-6.25 31.1-6.2Q33.3-6.2 34.48-7.23 35.65-8.25 35.65-10.55L35.65-10.55Q35.65-12.85 34.48-13.88 33.3-14.9 31.1-14.9L31.1-14.9 13.2-14.9Q7.65-14.9 4.58-17.57 1.5-20.25 1.5-25.45L1.5-25.45Q1.5-30.65 4.58-33.33 7.65-36 13.2-36L13.2-36 41.3-36 41.3-29.5 14.05-29.55Q11.9-29.55 10.7-28.58 9.5-27.6 9.5-25.45L9.5-25.45Q9.5-23.3 10.7-22.33 11.9-21.35 14.05-21.35L14.05-21.35 31.95-21.35Q37.5-21.35 40.58-18.63 43.65-15.9 43.65-10.55L43.65-10.55Q43.65-5.25 40.58-2.5 37.5 0.25 31.95 0.25L31.95 0.25ZM72.2 0L61.3 0Q56.95 0 54.9-2.18 52.85-4.35 52.85-7.9L52.85-7.9 52.85-20 45.4-20 45.4-25.75 52.85-25.75 52.85-33.65 60.1-33.65 60.1-25.75 70.8-25.75 70.8-20 60.1-20 60.1-8.8Q60.1-5.75 63.1-5.75L63.1-5.75 72.2-5.75 72.2 0ZM109.25 0L82.8 0Q78.75 0 76.6-2.05 74.45-4.1 74.45-7.9L74.45-7.9Q74.45-11.65 76.6-13.7 78.75-15.75 82.8-15.75L82.8-15.75 102-15.75 102-16.95Q102-20 99-20L99-20 77.8-20 77.8-25.75 100.9-25.75Q105.45-25.75 107.34-23.68 109.25-21.6 109.25-17.85L109.25-17.85 109.25 0ZM84.1-5.75L84.1-5.75 102-5.75 102-10 84.1-10Q83.15-10 82.62-9.43 82.1-8.85 82.1-7.9L82.1-7.9Q82.1-6.95 82.62-6.35 83.15-5.75 84.1-5.75ZM122.09 0L114.74 0 114.74-25.75 134.44-25.75Q138.79-25.75 140.84-23.58 142.89-21.4 142.89-17.85L142.89-17.85 142.89-12.5 135.54-12.5 135.54-16.95Q135.54-19.95 132.54-19.95L132.54-19.95 122.09-19.95 122.09 0ZM154.14 0L146.89 0 146.89-35.75 154.14-35.75 154.14-25.75 171.44-25.75Q175.84-25.75 178.17-23.68 180.49-21.6 180.49-17.75L180.49-17.75Q180.49-11.45 174.49-10.25L174.49-10.25 180.59 0 172.44 0 166.54-9.95 154.14-9.95 154.14 0ZM171.09-20.05L171.09-20.05 154.14-20.05 154.14-15.65 171.09-15.65Q172.09-15.65 172.67-16.25 173.24-16.85 173.24-17.9L173.24-17.9Q173.24-20.05 171.09-20.05ZM207.04 0.25L197.79 0.25Q191.09 0.25 187.34-3.08 183.59-6.4 183.59-12.85L183.59-12.85Q183.59-19.35 187.34-22.68 191.09-26 197.79-26L197.79-26 207.04-26Q213.74-26 217.49-22.68 221.24-19.35 221.24-12.85L221.24-12.85Q221.24-6.4 217.49-3.08 213.74 0.25 207.04 0.25L207.04 0.25ZM197.79-5.5L197.79-5.5 207.04-5.5Q210.29-5.5 212.01-7.3 213.74-9.1 213.74-12.85L213.74-12.85Q213.74-16.65 212.01-18.45 210.29-20.25 207.04-20.25L207.04-20.25 197.79-20.25Q194.54-20.25 192.81-18.45 191.09-16.65 191.09-12.85L191.09-12.85Q191.09-9.1 192.81-7.3 194.54-5.5 197.79-5.5ZM246.64 0L233.84 0 222.99-25.75 230.59-25.75 238.99-5.8 241.49-5.8 249.89-25.75 257.49-25.75 246.64 0ZM266.98-20.95L260.98-20.95 260.98-35.65 266.98-35.65 266.98-20.95ZM297.68 0.25L271.88 0.25 271.88-5.5 296.38-5.5Q298.48-5.5 298.48-7.85L298.48-7.85Q298.48-10.15 296.38-10.15L296.38-10.15 280.53-10.15Q276.08-10.15 273.78-12.18 271.48-14.2 271.48-18L271.48-18Q271.48-21.85 273.81-23.93 276.13-26 280.53-26L280.53-26 303.33-26 303.33-20.25 280.88-20.25Q278.73-20.25 278.73-18.15L278.73-18.15Q278.73-17.1 279.33-16.5 279.93-15.9 280.88-15.9L280.88-15.9 297.68-15.9Q301.58-15.9 303.66-13.88 305.73-11.85 305.73-8L305.73-8Q305.73-4.1 303.63-1.93 301.53 0.25 297.68 0.25L297.68 0.25ZM333.93 0L325.23 0 341.33-35.75 353.68-35.75 369.78 0 361.08 0 357.68-7.55 337.33-7.55 333.93 0ZM347.18-29.5L340.23-14.05 354.78-14.05 347.83-29.5 347.18-29.5ZM381.77 0L373.77 0 373.77-35.75 381.77-35.75 381.77 0Z" opacity="1" transform="matrix(1,0,0,1,0,0)" fill="white" class="wordmark-text-0" id="SvgjsPath2283"/>
                                  </svg>
                                </g>
                              </svg>
                            </g>
                          </svg>
                        </g>
                      </svg>
                    </g>
                    <g>
                      <svg viewBox="0 0 84.65900350274573 76.06958262424402" height="76.06958262424402" width="84.65900350274573">
                        <g>
                          <svg xmlns="http://www.w3.org/2000/svg" xmlns:xlink="http://www.w3.org/1999/xlink" version="1.1" x="0" y="0" viewBox="1.6165235823033985 5.312084950420108 96.60707536238598 86.80541463173783" enable-background="new 0 0 100 100" xml:space="preserve" height="76.06958262424402" width="84.65900350274573" class="icon-icon-0" data-fill-palette-color="accent" id="SvgjsSvg2282">
                            <g fill="black">
                              <g fill="black">
                                <path fill-rule="evenodd" clip-rule="evenodd" d="M37.094 26.532C45.776 26.414 48.953 20.791 50.294 13.332 50.028 12.223 48.58 12.296 49.057 10.445 49.739 9.843 50.208 9.569 51.326 9.826 52.364 11.028 51.624 12.971 51.326 14.363 49.692 21.986 45.533 28.867 35.238 27.357 36.686 30.028 38.04 32.336 38.126 36.019 38.275 42.45 34.898 48.116 30.907 52.106 26.947 56.066 21.513 59.487 14.82 59.325 7.382 59.145 1.779 54.059 1.62 46.125 1.504 40.382 4.31 35.018 7.188 31.688 11.616 26.564 21.694 19.891 30.907 24.263 31.804 24.689 33.134 26.034 34.207 26.119 36.265 26.283 39.633 23.761 41.013 21.994 43.591 18.693 43.756 13.384 42.457 8.794 41.956 8.03 40.593 8.418 40.394 7.144 40.262 6.298 41.291 4.79 42.663 5.494 43.558 5.953 44.532 12.086 44.519 14.363 44.484 20.581 40.839 24.587 37.094 26.532M18.944 32.307C17.794 37.303 24.959 36.982 24.719 32.926 24.61 31.079 23.541 29.974 21.213 30.451 19.771 30.746 19.083 31.698 18.944 32.307" fill="black"/>
                                <path fill-rule="evenodd" clip-rule="evenodd" d="M95.05 27.769C80.89 18.462 56.286 22.693 49.056 34.988 49.555 32.585 50.928 30.209 52.355 27.976 56.672 21.225 63.869 13.861 74.011 13.126 84.864 12.339 91.754 19.855 95.05 27.769" fill="black"/>
                                <path fill-rule="evenodd" clip-rule="evenodd" d="M87.418 71.494C87.304 61.105 82.136 54.042 76.074 47.981 69.561 41.468 59.323 35.844 48.231 38.906 47.361 38.941 48.234 38.589 48.231 38.287 55.234 32.573 63.563 26.385 75.456 26.325 87.659 26.262 97.248 33.676 98.144 45.3 98.962 55.93 93.342 66.142 87.418 71.494" fill="black"/>
                                <path fill-rule="evenodd" clip-rule="evenodd" d="M52.975 42.619C53.746 42.744 52.661 43.44 52.356 43.856 47.076 51.091 40.937 58.762 33.588 64.069 32.811 62.301 32.75 59.819 32.763 57.262 36.9 53.699 40.365 49.464 42.044 43.444 44.964 42.516 49.413 41.621 52.975 42.619" fill="black"/>
                                <path fill-rule="evenodd" clip-rule="evenodd" d="M60.193 44.682C62.973 45.821 65.35 47.362 67.618 49.013 59.902 59.996 51.191 69.986 39.981 77.476 38.71 75.928 37.474 74.345 36.681 72.32 46.61 65.198 55.675 57.213 60.193 44.682" fill="black"/>
                                <path fill-rule="evenodd" clip-rule="evenodd" d="M72.568 53.551C74.932 55.517 76.502 58.28 78.343 60.769 70.813 71.183 62.905 81.218 51.737 87.995 49.499 86.589 47.477 84.968 45.343 83.457 57.194 76.264 67.255 67.281 72.568 53.551" fill="black"/>
                                <path fill-rule="evenodd" clip-rule="evenodd" d="M81.644 69.638C82.794 71.634 82.875 75.62 82.469 78.507 81.408 79.643 80.126 80.404 78.962 81.394 75.74 84.134 72.618 87.373 70.712 91.707 67.991 92.281 64.375 92.227 61.637 91.707 69.601 85.645 76.797 78.816 81.644 69.638" fill="black"/>
                                <path fill-rule="evenodd" clip-rule="evenodd" d="M83.293 83.25C83.093 84.723 81.933 88.813 83.293 90.675 80.826 90.479 77.475 90.601 75.456 91.912 77.57 88.527 80.372 85.829 83.293 83.25" fill="black"/>
                              </g>
                            </g>
                          </svg>
                        </g>
                      </svg>
                    </g>
                  </svg>
                </g>
                <defs>
                  <mask/>
                </defs>
              </svg>
              <rect width="395.52" height="61.517722123857354" fill="black" stroke="none" visibility="hidden"/>
            </g>
          </mask>
          <linearGradient x1="0" x2="1" y1="0.548" y2="0.55" id="b141a508-c9ab-4493-ac40-126238d9aa9e">
            <stop stop-color="#ff6cab" offset="0"/>
            <stop stop-color="#7366ff" offset="1"/>
          </linearGradient>
          <rect width="395.52" height="61.517722123857354" fill="#000000" mask="url(#39a9ed38-d511-4aee-862b-a7d55359b110)" data-fill-palette-color="primary"/>
        </svg>
        <rect width="395.52" height="61.517722123857354" fill="none" stroke="none" visibility="hidden"/>
      </g>
    </svg>
  </g>
</svg>
